<svg width="200" height="200" viewBox="0 0 200 200" fill="none" xmlns="http://www.w3.org/2000/svg">
<rect width="200" height="200" fill="#15171E"/>
<rect width="128" height="128" transform="translate(37 37)" fill="#15171E"/>
<path d="M115.685 97.3154V101.443L82.5742 160.435H77.8242L76.8525 159.442L85.9746 114.625L112.285 97.3154H115.685Z" fill="black" stroke="black" stroke-width="0.88"/>
<path d="M114.81 96.4404V100.568L81.6992 159.56H76.9492L75.9775 158.567L85.0996 113.75L111.41 96.4404H114.81Z" fill="#FFD500" stroke="black" stroke-width="0.88"/>
<path d="M86.5 114.75L112.5 97.75H113.5V99L88.5 116.625L78.375 157.625L77.75 158V156.943L86.5 114.75Z" fill="#FFFF00"/>
<path d="M126.685 43.3154V47.748L108.398 90.8799L82.0303 108.185H77.0654V102.598L90.4746 63.7285L122.328 43.3154H126.685Z" fill="black" stroke="black" stroke-width="0.88"/>
<path d="M125.81 42.4404V46.873L107.523 90.0049L81.1553 107.31H76.1904V101.723L89.5996 62.8535L121.453 42.4404H125.81Z" fill="#FFE433" stroke="black" stroke-width="0.88"/>
<path d="M91.1178 64.1368L78 101.957V105.25L79.5 104.25L93.1557 66.1724L121.836 47.1613L125 44H121.836L91.1178 64.1368Z" fill="white"/>
</svg>
