<svg width="200" height="200" viewBox="0 0 200 200" fill="none" xmlns="http://www.w3.org/2000/svg">
<rect width="200" height="200" fill="#15171E"/>
<rect width="126" height="126" transform="translate(37 37)" fill="#15171E"/>
<path d="M114.448 96.3799V100.435L81.8574 158.499H77.1885L76.2373 157.526L85.2158 113.415L111.11 96.3799H114.448Z" fill="black" stroke="black" stroke-width="0.88"/>
<path d="M113.587 95.5186V99.5732L80.9961 157.638H76.3271L75.376 156.665L84.3545 112.554L110.249 95.5186H113.587Z" fill="#FFD500" stroke="black" stroke-width="0.88"/>
<path d="M85.7266 113.535L111.32 96.8008H112.305V98.0312L87.6953 115.381L77.7285 155.74L77.1133 156.109V155.069L85.7266 113.535Z" fill="#FFFF00"/>
<path d="M125.276 43.2236V47.5791L107.277 90.0332L81.3252 107.065H76.4463V101.574L89.6445 63.3154L120.996 43.2236H125.276Z" fill="black" stroke="black" stroke-width="0.88"/>
<path d="M124.415 42.3623V46.7178L106.416 89.1719L80.4639 106.204H75.585V100.713L88.7832 62.4541L120.135 42.3623H124.415Z" fill="#FFE433" stroke="black" stroke-width="0.88"/>
<path d="M90.2722 63.7128L77.3594 100.942V104.184L78.8359 103.199L92.2782 65.7166L120.51 47.0025L123.625 43.8906H120.51L90.2722 63.7128Z" fill="white"/>
</svg>
