<svg width="200" height="200" viewBox="0 0 200 200" fill="none" xmlns="http://www.w3.org/2000/svg">
<rect width="200" height="200" fill="#373737"/>
<path d="M90.1833 49.2737C96.6676 48.0188 103.332 48.0188 109.817 49.2737" stroke="white" stroke-width="12.9167" stroke-linecap="round" stroke-linejoin="round"/>
<path d="M109.817 150.726C103.332 151.981 96.6676 151.981 90.1833 150.726" stroke="white" stroke-width="12.9167" stroke-linecap="round" stroke-linejoin="round"/>
<path d="M128.98 57.22C134.464 60.936 139.182 65.672 142.878 71.17" stroke="white" stroke-width="12.9167" stroke-linecap="round" stroke-linejoin="round"/>
<path d="M49.2737 109.817C48.0188 103.332 48.0188 96.6676 49.2737 90.1833" stroke="white" stroke-width="12.9167" stroke-linecap="round" stroke-linejoin="round"/>
<path d="M142.78 128.985C139.064 134.469 134.328 139.188 128.83 142.883" stroke="white" stroke-width="12.9167" stroke-linecap="round" stroke-linejoin="round"/>
<path d="M150.726 90.1833C151.981 96.6676 151.981 103.332 150.726 109.817" stroke="white" stroke-width="12.9167" stroke-linecap="round" stroke-linejoin="round"/>
<path d="M57.2251 71.0202C60.9411 65.5359 65.6771 60.8174 71.1751 57.1218" stroke="white" stroke-width="12.9167" stroke-linecap="round" stroke-linejoin="round"/>
<path d="M69.8421 147.104L54.8278 151.496C53.9766 151.722 53.0818 151.727 52.2283 151.51C51.3748 151.293 50.591 150.861 49.9512 150.256C49.3113 149.651 48.8368 148.893 48.5727 148.052C48.3085 147.212 48.2634 146.319 48.4418 145.456L53.4276 130.06" stroke="white" stroke-width="12.9167" stroke-linecap="round" stroke-linejoin="round"/>
</svg>
