<svg width="128" height="128" viewBox="0 0 128 128" fill="none" xmlns="http://www.w3.org/2000/svg">
<path d="M78.6846 60.3154V64.4434L45.5742 123.435H40.8242L39.8525 122.442L48.9746 77.625L75.2852 60.3154H78.6846Z" fill="black" stroke="black" stroke-width="0.88"/>
<path d="M77.8096 59.4404V63.5684L44.6992 122.56H39.9492L38.9775 121.567L48.0996 76.75L74.4102 59.4404H77.8096Z" fill="#191919" stroke="black" stroke-width="0.88"/>
<path d="M49.5 77.75L75.5 60.75H76.5V62L51.5 79.625L41.375 120.625L40.75 121V119.943L49.5 77.75Z" fill="#484848"/>
<path d="M89.6846 6.31543V10.748L71.3984 53.8799L45.0303 71.1846H40.0654V65.5977L53.4746 26.7285L85.3281 6.31543H89.6846Z" fill="black" stroke="black" stroke-width="0.88"/>
<path d="M88.8096 5.44043V9.87305L70.5234 53.0049L44.1553 70.3096H39.1904V64.7227L52.5996 25.8535L84.4531 5.44043H88.8096Z" fill="#191919" stroke="black" stroke-width="0.88"/>
<path d="M54.1178 27.1368L41 64.957V68.25L42.5 67.25L56.1557 29.1724L84.8359 10.1613L88 7H84.8359L54.1178 27.1368Z" fill="#484848"/>
</svg>
